<mxfile host="65bd71144e">
    <diagram id="cK63LAdhoZHou8yfCM0J" name="Page-1">
        <mxGraphModel dx="690" dy="684" grid="1" gridSize="10" guides="1" tooltips="1" connect="1" arrows="1" fold="1" page="1" pageScale="1" pageWidth="1100" pageHeight="850" background="#FFFFFF" math="0" shadow="0">
            <root>
                <mxCell id="0"/>
                <mxCell id="1" parent="0"/>
                <mxCell id="12" value="" style="whiteSpace=wrap;html=1;fontSize=22;fillColor=none;" vertex="1" parent="1">
                    <mxGeometry x="60" y="200" width="232.88" height="490" as="geometry"/>
                </mxCell>
                <mxCell id="2" value="" style="shape=image;verticalLabelPosition=bottom;labelBackgroundColor=#ffffff;verticalAlign=top;aspect=fixed;imageAspect=0;image=data:image/png,iVBORw0KGgoAAAANSUhEUgAAAG0AAAAyCAYAAABWIFV0AAAAAXNSR0IArs4c6QAAGy5JREFUeF7FXAdUFNf6/80WliaoqFjAXrBF015eMbFE7EZN86SosRsw9m6Mir1gIiKIwS5RgkYTjUZjjNEk75mX5L00ozw1zxpUVEQEYXfm/s93Z+4ws+yyi/ryn3M4wOyde7/7/b7+3VnJEl2LMUcAmEUCv8RvMPV/qPclSYJ+CwDThmuDSn/p92m8mKPMKPMNJlbxPK7sWsxES7mzE910eaKFf+RlI0S6tz36oNdIj067WF+nQymdn2gUdLptRhJrMQb626IokKz1ajMlyKGBRg+bltQ2rN0zYiDGeVnMI6N8Mckb970xz4csePzYnV53MP2Uswot7b4Gcd94lctD81AbgWZrEMVcgQHli7pXZvrgppHY8gDzICdepbxC3DJoWHmMcZ/TF3AVFaLytLaC+5FkGZKtUV3mcthV0ASTPW7Qi0nyBkYZ6TLs1Giy9HEeOGG85a+prSAT/vfD3a2Xnyt63C8DFAbJ3rgecwbYSkGriER6W9/bgrrEaWj4rX2+RN9PRnDfVo6vqsA0FR7qL1/L9b0MkBlpWnSppgmbxLVO26HXTboFGmIxi0V92Pgc/8wIlAgADOMqiosvzfOXSRXm/h/4gDGo43CQpgGSrUk0c9ltbkzVUFM0TnpigA6sAWCa2GoFmMLVGDarukNFLhtu8mi0okg9YIbp+6pANCq01V9SKur/PM0rLJIAzd4kmjk5aEL6/aRGgEZ8VxTYLFYwRYFM9yUJks0K5nSqwLlkyiVUtynyBqMgPIiN+Um2adi9gnYva93PM/cNmlFlXTKsFgv+1LoN4oaOgN1igSIBTqbgTkkxRk+dBMUpIzwoGJNGj0HDuvU46TIYXBLDzr178PGBT1TL6Y85qwi496LE/s5fkbn9nbNcULVJTOaRAhGv2bLbbEbmumQEMAn9YrtiY3IqHBwQwAngNmTUadGMa1lEcCg+zsxCm2YxHB8FQBGAuUmJeDstFYyIMZpbbybij9YMb4JUEbPuT3Ttj8AafZq1STSTA+wqm/yRID1cJ4RkOJiE5zp3w5bVKaAQhC4VNAW1WjQFZAURQSHYv30H2sQ00+EoAPAWgbZmtX9a5g6kLwn2thdP98VcZeb0skhFQDPSbQTHlMOacpuyWLibRx00981w6dfKKyL4K1M9YAhUJDzfuRs2Ja/WQSsBkMdciGoZAybLiAgKxQEDaDTdbQ7acqxMS/WtZZ40z1xl82xcPEkw7YH/GEyyLwHg7l4MqmDQIjTEnZaKaLFn0DyYR79AA4IU0rSu2Jy8Wi9iEGg3BWiKws3j/m1kHpvxMS4ApGlzkpZj1dpU/zTcHRZPJTVvUl3mWbeUxJs/KcPYewDMK2heAj9vWiyibUquVU27f9DcNe2G4kJU6xgeUVYOCsG6d1ahRYsWUBQFLjDcZQqS3k3Dlm0Z9xZX3Q9ogpG+VjaB5gdg7n7ZaKE8pk0eVPy+QDNtSKNGsnArwQhtSskYg0MG+j3dBZtTUnVNI592XXGhDoFG4yDB4pLBZIV3ERQwyNRNoB+TnReLaiaMZhRdB13SFDWNoIlNCTyFN5w4dU6+sJWnI/wS9/j/lEOSoArkvZXoDCbR5QICAgD6bdHyTxOD1RITqLhAP7SOKDTQvsU+6Z6s8K4JCbTqgrR9015FbmyyGppWiujRq6YZ+CdpPoDPTUDZA7jGUJvAoUjo07kLNqSk6GuT+ctVXKjVOoYzXVIYbFR+0aJEYpuLh/luob7OQ8b9I23MYiFBkaAwpv9wZnOGaJcAhu5poFFWyNsahmiZZ4nEFGKYRVLjLnVTnk20sQAgKkSiVaXRx5mvuRJFltUFrQI0UUCQiBoOJNEVYLPBarFCUWS4mIISpxOS1aoG8OWVsfwCTYvEKUKkBatHRGDUsBHoEhuL4OAg2K02DobNpSA6sobOQw4aI9Cac9AckgUDnn0BNSKqqQIvSSiWGI5+cxz//Oa4Hi1ZGGkv0KZ5C4wZ/QZat2oFR6ADVqsVLpeMwqJC7Ny1C8lpqSgsKeE5Iee7S4aNwIUEu92G9u3bY9igwYiuUwcOh4MDL66iu3dx8NCnWLFyJW4VFvD0Q8yjDzKYXqKJlqkSFo7+L7yAPr16I6JqVZ6fWqwWWCxWuGQZd4vv4teTJ/Hh3j344quvkFdwG4wpnCZJVhAU4MDY+Hj06t4DVcIrw2a1wKUoKHG58PnRo1i6fBkuX72iWhF3q2mQPC6ItqZ1mYuXm9xMFakwSYUkoW2Tphj62mC82LcfgiQbaLSwTvS3Qeb5vrl5JNBaxfDPqgYE4cC2LLSNieGfE6PyAMxblYikNSncJLRq0Bgv9noGQ18ZgMjwcL6GpgN6JkJzkUBcyr+FMTOn4qMD+yFJFoTAgpTlb6PTU+1RVXuWajxGCyr4QGtTLlkEBenbtmDh8qW4WVQISNouFMYFxwYJMQ0aocOTT2HAq6+gWd0GCADdN/OUF4S0OWleou9i/g30eK4fLl+8hCrBIejf91mMjx+NmlUj+L40bqsCo/0UQsGWzEykbtqAUxfOaRpnsAA8wVX4fQ00Ithi8i8WMmkK0KpxE2xftx4NImvriwnGq/6q7KWD1jqGm8bqjmAcyngfrVs01wffBJCQlIiktWtgdbowcUQc5k6czBljsMyqJrktQfP/knMJT8R2hKu4BJWsdlz6NRuB5Dv9KOIT3SKXPPLNV3hh4EAwMmlcaxUESVb0iu2C2dNmoHGdKL6+O1juuybACIC7ADbuysK0WTNRNTgU82fNRv/effgctDdP2YV4lgD/7rcz6PpsXxQ6i91SIfKZVNOlzjVFj3ZNXwyJs11W0LBWFI5/fgThZXRJ3TRtnjZTrqYxoLojCJ+9twMtm5cm1/kU8q9agbdTVyNQAQdtzoSJXAiE5NIadNFmtfRf19QbUNDx2Wfw64kTCFYk5GafMQEutJQYQYzSxNIkEFSVucWKETd5Enbv38c3FAwrurfvgI2paxFiYDIx1shw9z0TzWoA5sSkaVOxa9cuxA8cjIWz3jKBLjSTfrvTRMQRX/597iwH7i4BpwcmGmikaSbQtC2RllW2B2JzShq6t3vSBAoRlpN3Hdt2ZOFWfj4CLVY80rI1esZ20RliMo+MoRpp2ns70NoAGmnaHDKPqSmwMWDCyDhMHzcRBfm3sGvvHpy9eAGFzhIoJSUIttjxfM9eePKxx3STSZt7Y94sbM3IQAiTcOPUGROwNPBfp09h5769KC4uRrDVhqceewJPP9Vep5OAIM3YvG834idNhFVm6NWhEzalpCGMIk/tIgbTuH+f+AUHDx7k0d8z3bqjbcsWptx079EjOHv5IhLmzkWtqtXw3dEvEWqYh/LXnJs3sG3nDlzPzUVIYBBGDh6CmuHh+lokZHxvc97Eezsy1YCLR5+iWwIPoFEw4FLQ4ZHHkfHuOkRWqqRPSIv+58olxD7TEzdv5/MQPggW9IntivXJqaYylvBpFDFy82gAjZhAPm3uqkSsJJ8GYNArA1CYn4/PDn6KgsJCHlVZKSx3uRAAC9o0jcHRPR/rmkgbm5++GonLliMUVtw4dVoHjea/A2Bd5lZMnfsW93tWl4xqgcE4tu8gD1CEJhIYWZ99gqFvjEaY1Y6VC5fgpd7P6GZfFAL6DxmI499+i+KiIgRKViQtXYZX+vbjeyYtKwQwctokfLB7F+wKsPXddejZvoPOExUMBS8NHYxj3/wDzuISBNvsqFUlAj999XcuuBTxC9q3HtiH16dNUjskPDXQQKNIw9Ikmim6eVQpCHAxvNb3OaQsXaYTT4TlFN5G30Gv4ruff+QRIKluMCx4NrYbNq1arfsfo6Z5Ao0GctCSEvEOgSZCf4pEKRCQJB4NBjoC0TC6LurVroOGUdFY/OYsva5MZbB561OxfOlShDIJeafOmoIXAnVt1hZMnTub50Pkn4NdDIumzEDciJG6IBJoOz47gNdeH4U29Rvh8N79CNdqsbRnAn/KwgSkbd7I0wQLY6hEoC1aioF9+vF5SGNp3PBpE7Hzgw8QERiMfxz8DPVr1tTpJZ58+sN36PNyf8iMqamMS0aIZMVbYyZg4uuv6zSR2f4q+1e8HDcC13J+LzXM1Jck0KQm0YwJ0CicZAxBzII5Y8Zjcly8SW33fHUUg8aOxu3CAi2BpLESno/tho1JyeVqGvm0VgbzeEvTtLdTNdAYg12yopLdgRd69Ua/nr15mB1ZvTqqVq6CQJsddoMjIcmeu2ENli5ZglCF4Vb2f01mnOZPydyEGQlzeIBlVYAQGZgydCRmTpmqaxoxM+vQJxg8Og6d2z6Oj7dn6iaPWHTqyu/oM3gATv92VlMFxoUkZdFSDOj7nO5jqSw3YsZkZH2wEzG1o/HZjt2oWbWKiX9PvvwCjv/8AxjvLxKvwf35yz2fwbsr3jYVJ87k30C/oYNw8uef1WSeK4naTC4DGvkzMnkZSSno06XUT5F6b9qzGyOnT4bMDYKmlTJD/y49sGlVsrkiooX8QtM8g6YGIkR8iM2OTn9th5VLl6FueBUTAMbCh+ACgZawYQ2WLFmMEAXIdwONNC3l/c2YnjCbSyeBFqyooL05WQVNtJF2HCLzGI+4F19B4twEfW1a9x+nT6HDs31Q4irRomsCzYKUhUt00ISmjZo1FZlZWWjXui0+WL8ZEZVCTaA169weZ3MuqT5Ks88E2otduiM9KRl2rfpDgnTZWYTeg17BTz/+qNpfXi0pB7RgZkFG8ho8E9vZ5LQ3fLQLw8nOWrVMX2YIYED/2B7YvCpZH+vJPHoEjVozyUncR8S9NhTzps/kfkn00UWeRb6U/GewFpbTQmSO5m9Mw+JFi7jk38r+zYumzeZWgYKMYNK0YaPKgJZ1aD9GjBmDhLETMWnkKJPwfX/2P2jXpydcsssM2oIlGNBP1TQBWvzsGXgvczvat30UO9I3omooxZ/qRULf7OmncPb3i3pJTWha/649kJ60yuRHL5UUoefAl/ALaZroSPjStLffnIPhr76q1/eIsN3HjuC1CWNQcKdAU1eFN0G5piVVXNPmJ7+NpJTV+EurNtialo46VVRzQjSSXS9wFuPwkc+xft16nPjhR1z69aTOBK5pG9OwZPFihDLg1ikzaHlgSM3crJpHql4Q6C5g6vCyoHFNGx2P6SPiMHvCRFM57pdL59G5/3PIvXlD0w7GNZvM48B+z5tAGzv/LWzeuhWPNm6GvVu3o0Zlc1T4UM9Y/PrbGa0uadXN4yuaeTQCnH3zGnoPHoCzp0/7Bk34tFEvvoTEhHkmTbtYWID+I4fi+HffqurqkhFIPq1rD+7TRJDsr6YlrFyOlLQ0XnCmQIaeJ4kkzXpv30eYnjAHN/PyeGRFkV3uiVMm0OaRplUAtBACbdioMj7tfQ20Pu06IDN9nQ4aCc/lokKMnDG59FgE8wwa+bQpS+Zj/cYNqBUShq/3HUBUDXNpL/PrL/Dq8CFq7kXnaDSfNmf8JEwe9bpJWD778Xu8PCYON65dU08VGM2jKU/jgQi4yevZrj3WJ6cgLJDqDKWh6IkLv2H46HhkZ2dzc0Sm7YXuvZCcmKibNWI61R6pyk91t8jAUBx6L8uUXFP0uCBpBVanrEb/Hr2RvuIdDlqxFj5PmD0Tm97fDqbIcMCCMIsdV39VQRNh8cKNaVi0aBFCmAW3skujRxpD86/J3MKBpycsWvQ4bXgcZk6ZbDLl2z/dj9feiMcTTZvj8EcfI1D7lFwJ7eX0tRz06NcXV67ngsrMYRYrVi5YjJf6PstH0jiKZqesWIT09HUIkhmO7tmHh5uq/UNB83UwjBo/Bvv270eJ7ILDakOD2nXwxd79iAgONgnklr27ET9jCmRRhBaFZIr+3UGjJyk8rlUpHBlr0/HXhx8xhdIibzn737O8GkF1uoebt0RMwwb6orTRq8yJ6NbNYXEpqBlcCUeydqNJo9IxlFwvSEpEWloa+nbuivUrV3F/xjsAAPYcO4KEJYtRVFiI0AAHKjuCcPjDj3QGkGQvXL8GiykQYRbkZZ/VhYYG8ehx+xbVPFIoQumJDEwf/roJNKJ1+6FPMGT8GNQIDMH29A1o16atKRgheig1OJdzCefOn+elvTpVq+nr6aC9swTvpqfD4VLQul5DHDvwKd+TCHrJxdxwlSAlNRVffHkMf37scUwaOw5VA+h0jSqMZKXymYxBcaOw74vDesSqM7cMaOITKucwCZ3//Ddkrt+EQLeCGS0uCuG8r6bPqP7BQVOcqNu6OU/UyVwc/XAv6kdH6SN57XHlcqxanYzenWKRkboWwYbeGjHq9xs3UFBQgGCHAxFhlREaVLo5I2ihzIq87DMmOkjTUjK3YKYGGs8pXcAMN9AIjG2HD2DIuNFAUQn3UylLE3kJy3hp3TouUKIWaWAX17SJiQuRvmE9bE4FlWDBglmzMfzVASZhEiU6epbANPKO+Eq+Oi1jM95cOI93QlQzZygc063yao+BzIKWDRvh8L5P4KDelttG6F9+olG8jqOBSyYuFy5Et4oB7pYgOqwqTnx1HCEGphNTZ69YgpS1abyzvW1tOp5+/Ikya3gK9+kehfQL3k3GsmXLeEXkdvZZE3WkaauzMjBz9iw1p3TJPKecOmQkZk9VQ366iEmZnx/EkPFvAMVOBMKCtyZOxthhI1FqsEqnFtrgXtgmeiYtW4D0zRthlRUEyAyRVSKwIWUNnnzkUb0zQjPxCN5QyxR1SxL2Dw4fQPy4cbhDdUc9Wi4FjePoETSaUGZwMPBe2EMxLdD/uefR9enOiKpVy7So0DRRzqGF74Lh/M1cPNzuL7A7ZUSFVUH2t9+bpIrs+/RFCXh300be2f5Tq4cwKe4N9Oj0tF4NV1PQ0oKvYB2tcRsMi9NTsGLFCn646PrJ03rBWJTJUrZtwuwF81RJpZIbs2DcoKFImDFDD3pI0zI/P4DhY0dzYC1MQqjNjn7demLUkKG8t0cAGQu9VGKjV47IJwkQKAUZs3AONmZs4RTbqboDIKp6JKaMHY++3XsiPCSYz2METNQ/r97Ow8ZtGVi3ZTNyrudqXX234/laQl4WNBF1MK2vRJELr1ZYEFWrNsLDwlA9sgZatmiBulHRsFmtuJ13C5cvXsT5CxdwJTcXt53FyC8uwm/nz4FyvofqN8LXnxwwacIVxYn4aVOw8+M96vyQEOYIQotGjdGscRN07NgRUdHRsNisyL16DdevXUP2yVPIuZLDm4XUAzufl4trV64AJS48360nnHeKeAmMOslFNglnr1xG9un/qBLrkmFXJDSoUZPPT3RTOckpMZzLvYoTZ7K11gcdpZB4Xle7RiRqR0aiZvUaaFC3Hj8mcf7cOVy9dAnTxo1Hz85d1JKglje+PmcGMrLeV7v1LoVXlyjyDbLZ0bR+Q7R9uC0GvDoALWOo0Mz4cz/88hOS1qTil1MnOb8U6qjztoRouZu72WoTtEld5uL1Ic34Gbq2Hqyhfqv0vTj1PIfWUIdCTOMfqh3rSsyCfe/vxOOtWunPknSdu5OPDr2648KVHFPfiEyt0V/yrrIWOQkzzJNu2py+MbX3x5/VxjrV8wplOpZ0rsX0RqvoXNu0ai2VmHinm8pFalhOR9kJACuj2iNQyWrD6qWJeLFXL74n2g+Z42FTx2PXno9K19TcBj0jLj6n9g/RqmuwuOmp4WY49lC2c+0NME8TmcaaqFJJomCGjtd16YZ1VKIRhGp+5McLv+HJrrGQ3d+K9OTETNJjDKINHxiR9jmHmziKrjC1UcQhHDGHCLWpyMsk2BnQun4jHqA1rFObT0TByTXZiSETxuDg4UP8LIt+eeNTeRrh/hkP0DRh42/N0HEDKhiLY+HuwHkCzDip8TSVsBVk7rTNbUpORatGjfQnyB9Ri2LU5An4YN/e0hcy/NkEp0WYDQ8SZvzcn/mMnGVA5fDKaBBdF6dPneI9uBJxXF0LtsjUhdodmDVuIsYOG2bqpX3/3zPoN2QgcnI0y6EJbtlWtVG6/CTSeDpJfdWpLnMFGEDzcx6hTfy36dQSQ9XQSniuR29MjRuNhpFqe4IuykHI8e/7+iivDLgMTKnIsib76enBivKFzLvCEFO/EY58chCXLpzHnr17kZuXh2KXk5+aCrTaERYUjC4dO+Fvjzyqh/EikMjY/xFGTploPttRUY33xgR30NTo0dcJCF8sLX3XzGGzYWnCfPTv3RfVrHZTP4607OTvFzF0dBy+/+VntfDsfnmL8cU4o3X0ZQV8kS0+p4BBZmhZrxG+PHiIh/pk8uiH+0/tuAN5OnFgSETLNOa6XILHOz6FS9evlloCoyD7S8cfC1pptk18pDJYt45PI37YCLRq3gJVgoK5hn134icsSlyOI3//EjI/zOn9qxjud58Vel47xNSyXkMOGjVU3GVH5FZiXrIaBNj5G9cwavxYHPvnN5C5EGpqztH2M6rzRaxHTavIq06+FtBsOcUXwUGBePSRR/k5xJzLv2P3ng9x7cZ188sMHs8n+bPIAxyjmcem0fVx7OAhVJasHo/KEQQid6SkPPvSOUyYPg3H//U9nC6n4TtYHiBtwv1wvmqv7/o8YVzR9XV/ojXt6FibZIFC/Sh+yEVIouGtnIqu8b8YT8myPQDz33wL3Tt0QkSlcP6/nc6pcH/MICsyCu7cQX5RIVamJCMjM5O/l8DffqWTzcZTzw+Sxj9E04wEczNIZ+pl7X1szUtw+/OgnNID4BDRSd/RYbHCIVkRWa0amjZuguioaISFhyHvTgHOnTvHuxtXb16H03hWX7xh9ADI8DjFHw6aHkAYIogHZOofGI+MTBe9Lv0tcXUVrk1kJdwFzVBBemD0uE/0/waaOB/m7WWH/9mO/ZiYBwwGrddp1YB6UKG7H6T4pWkBjaNZifjyF29BgS/N8MvKGQd5qxh4ILm8uY10+aza+OKYVvLSzZ6hWKvPbYgOfU33QD+ndbXXuOg1s4BGUczpsGsFEe1Drwv6eo/rgVLq32S+tMCfsNuU+xnQ9+dZT1Tec2XG25ZLCaQigBTQsA7/xh71dR8DaPcaJPizUW9z+9QWN6Fx17T7ZpYv1TUw1fQypOE5Y51QDC+PJ37x2Q00R/3a/PVdejOT0es+4pUfE+jG0rtbQCEIMtUg/bKX6gr+gKwHM0Kw/FNCn3PfD8j+0n2va5jmV4sQFjBYSdOC6kQyJcDGX/XhoBnzLIN7Fi2P0mDQ/KWdqjtUwTK/femLwZ5Nrv7NPkbhpvkrIA+qTJR1yKXNEUFyBSdVpc3z26MavUb6+ReceiXcU4WeudGtts0INHpv7v8A20vcKCl6D48AAAAASUVORK5CYII=;" vertex="1" parent="1">
                    <mxGeometry x="503.92999999999995" y="126.5" width="109" height="50" as="geometry"/>
                </mxCell>
                <mxCell id="4" value="" style="shape=image;verticalLabelPosition=bottom;labelBackgroundColor=#ffffff;verticalAlign=top;aspect=fixed;imageAspect=0;image=data:image/jpeg,/9j/4AAQSkZJRgABAQAAAQABAAD/4gIoSUNDX1BST0ZJTEUAAQEAAAIYAAAAAAQwAABtbnRyUkdCIFhZWiAAAAAAAAAAAAAAAABhY3NwAAAAAAAAAAAAAAAAAAAAAAAAAAAAAAAAAAAAAQAA9tYAAQAAAADTLQAAAAAAAAAAAAAAAAAAAAAAAAAAAAAAAAAAAAAAAAAAAAAAAAAAAAAAAAAAAAAAAAAAAAlkZXNjAAAA8AAAAHRyWFlaAAABZAAAABRnWFlaAAABeAAAABRiWFlaAAABjAAAABRyVFJDAAABoAAAAChnVFJDAAABoAAAAChiVFJDAAABoAAAACh3dHB0AAAByAAAABRjcHJ0AAAB3AAAADxtbHVjAAAAAAAAAAEAAAAMZW5VUwAAAFgAAAAcAHMAUgBHAEIAAAAAAAAAAAAAAAAAAAAAAAAAAAAAAAAAAAAAAAAAAAAAAAAAAAAAAAAAAAAAAAAAAAAAAAAAAAAAAAAAAAAAAAAAAAAAAAAAAAAAAAAAAFhZWiAAAAAAAABvogAAOPUAAAOQWFlaIAAAAAAAAGKZAAC3hQAAGNpYWVogAAAAAAAAJKAAAA+EAAC2z3BhcmEAAAAAAAQAAAACZmYAAPKnAAANWQAAE9AAAApbAAAAAAAAAABYWVogAAAAAAAA9tYAAQAAAADTLW1sdWMAAAAAAAAAAQAAAAxlblVTAAAAIAAAABwARwBvAG8AZwBsAGUAIABJAG4AYwAuACAAMgAwADEANv/bAEMAAQEBAQEBAQEBAQEBAQEBAQEBAQEBAQEBAQEBAQEBAQEBAQEBAQEBAQEBAQEBAQEBAQEBAQEBAQEBAQEBAQEBAf/bAEMBAQEBAQEBAQEBAQEBAQEBAQEBAQEBAQEBAQEBAQEBAQEBAQEBAQEBAQEBAQEBAQEBAQEBAQEBAQEBAQEBAQEBAf/AABEIADoBAAMBEQACEQEDEQH/xAAfAAACAgMAAwEBAAAAAAAAAAAACQgKAQYHAgMFBAv/xABJEAAABgEDAwIEAwQEBxEAAAABAgMEBQYHAAgRCRIhEzEUFUFRImGRChZxoSM4doEZJDI1N7W2FxglJicoMzY5QlR1scHR8PH/xAAeAQEAAQQDAQEAAAAAAAAAAAAACAEGBwkCAwQFCv/EAE8RAAEDAgUCAwUDCAUGDgMAAAECAwQFEQAGBxIhCDETQVEJFCJhcTKBkRUjN6GxwdHwFhdCdbMlJzNSdrIYGSQ2RFNWYmZ0lKW08bXS4f/aAAwDAQACEQMRAD8A/n/6YYNMMGmGDTDBphg0wwaYYNMMGmGDTDBphg0wwaYYNMMGmGDTDBphg0wwaYYNMMGmGDTDBphg0wwaYYNMMGmGDTDBphg0wwaYYNMMGmGJ7dPPCWPs55tXruSog8/W4yry00eGK9exqb50gsyZtyOHcY5ZvyIJmfesYjZ0iocUgKCpAER1gDqPz/mDTjIbNZy2+1HqMiqRYiX3mW3w2h1D61HY4hSDfwwLEWtfjsBOLoS0VyTrbqhU6FnyE9UKNTsuT6mIjEl6Gpx5l6I0jc/HWh1IHvBJsT8IPa+JM9TTatg3A9MxNacSU1SmvrLYrTBTjRGfsM1HvkI2PiX7JyCVmkpp02doncuER+EeIN1UlPxtxUIVQLG6X9X826mDMkfNT0ea7SfdlsvMR2YxUh4oFilhCBwpRBPxXsOwJGMh9fnTxproe/kp7TymyKUxXzMRLZkTZM9IXHQ4sKS5KcdULgJ4FiO/OJK7KNjW2LJW37Gd1yNjZS22K5FlnspJObZcIkUEm9ml4FJoxb12dh2aSCbeKI5KZw3dOBcrLidcyApoJ4l1o6h9R8nam1TL1EqMSPSae9AQIzlPiOLdS9GjvLHjONLcT/pikkHuL2AF8Sk6b+izQrUDQTK2c80ZfmS8yVym1J9c1qsVOOltxiZKjNKTFZkJjrsWQSlSLEEDgm+Ea56pkTjvNmWKJAgsEHT8i3KtQ4OFRWcFjYSwSEczKusIAZVUrdumVRU34lDAJh8jqe2Wai9WMu0SqyAkPVCmxJbmwAAreZStRsAALlR4HGNNeo9Bh5Xz3mvL0An3Sj1ufAYSpRUpDcd9SEpUpRJUQB3JJI7km5xyXX3MWVic/T9xHj3NO4GGpmSYAlkrTiFtLxeKM/lotNw4ja3KP2gmdwz+NfkAjpuif+idE7gL2m5DxrCHUJnWvZD0+mV7LcluJUGXY6UOLYZkJBdfDJ3IfbWlVgvcBZNyALkE4mZ0TaS5J1h1VGWs8wHqjSUU6TLUyxJfiKUtnwyB4jDjagClSgSe191rgEMwv9M6R2L7vYsdXeqow9pqkipEzzUrvPb1uzfokIoqkR20tThNcCFULwqiRQhjDyAGL5GPWW6t1eZkotNr9MqeXVwKnHTIi+8U+lodW0SUgrR+TyUqNjxcXFlC4IOJhZry57OjJ+Y6vlWtUHMDFUosxyHODVcrC2m5DVt6ULVVE7tp7/CBe9saFMdPnaxuNqdgtGzPKbsZ6N+JO3qk49UkoR0/Mgu6ZQIhLxMPbq2eRFss2iH0wEy2XWKCazsClVXL9ila+6k5GzHT8uax5YZhsT3kssV6GEtsPlVgHGyyURVpSVpDiEoQpPAUEk7sW3mno10V1SyNWM89N2b3Jz9IjuSZGXH3VTFtpSAssuOSVuvpcCDuQblKxwlaiNoR5OxUjBSj+El2K0dKw757FyTFwmKa7R/HuDtHjVchgAxFm7hFRFUhgASHIICADzqakWQ1LjMSmF+IxJaQ+y4PsuNOpC0KSe5BSQefX8NU1UhyKdMkU6W14EuC+9EktEWUh5hfhuJVwDcKSRz6H54+SACPPAc8ByP8NejHzv5/DGNMMdt271WCvGZ8a1KyswkIOfuEHGSjMVnDf4ho7kEEF0RXaLIOEwUSOYvciskoHPJTAIAIWVqRWJuXchZprlNcDU+mUqXLiqKUrAcZivupulaVptuQm/wm/PHpnjpoybQdQ9bdO8k5ljqk0XMGY6fAntoWtpSmn5TDRSlxtSFgkLUPtDvbtyJF9R7DOOMEbjndExbXxrNWCkUucTixk5aX7H81Fg7fKg8mn0g+Eqihg7UzORTIBeCEKH+VbWimaqtnXINLr9acDlQlOPpdKW0NpIbcWgWS2EptZIIskXvyOL4uPq008y1pdrHX8oZTiKiUeEGFx2nHXHloDjaFm7jqlLIubfa59AOMQH1lqxHcWxGTHV8JVuHt2VaFXJ9t8ZETFpg2Egz9RZAHTN1IIIuETLNlUXBCqJHMQTIqpKl55Icpg51a2eqpKoeTcxVeAtLc6BS5cuMtQSsBbMd5aPhUlSTZSASCLW789sx6B5TouedXchZVzC049SK1mOlU+a00pTSnGJU5hlwFxtSF2KFkXCgR5ed5bdSvB2M8B57h6fiquDWK2+xtVLEvGjKS8sAysstLA8WK5mn8i8KQ/wAIkBUgcAmQofgKXu1YehOcaxnrIUWv1t1Ls12ZKYK0NttBSGXVISra2lKeybdu4PncnJPWLpllTSfWKp5UydEdh0ePFjOtsuvuvqCnWGXVfG6tauC4rz548gMLyABHwHkfP8vOsy4imBftj7laRjV56KRlxKWMUeoFeic5kyg3FQoKiY5DFMQoEERExTAIe4Dzr59VclNU6Y5CBMpMdwsAJCyXdp2WSoKSo7rWBBBNgRi6MlxaPMzVQ42YFhujO1GKmpLK1NpTE8ZHjFS0ELSA3uuUm9u2Gb79qBssqVBx892yOqgvbHdrl2toLXrrYLSsMAjFpKxjl4zl5uVbsTKvRUKYzZu2/GAJ8B5LrB+h9b1Wq83MaNSIL0OLHkOJpK5EKPFS40F2RtLCdywUn4VquVd+LYl/1c5R6c8tQMlOaG1GLNnSobC6+mPUZs8Nuli6ytEtSktK8S10IuE34PlhcFEoNwydao6m0SvyNmsswsdOPiIlsd07ceiko4XMmkQOQSQbJLOXCphKkg3RVXVORFM5y5prdcpeXKXJrFamNQKfEbLj8l8lLaEj1IBJJPAABKjZIBJAxEfJuScy6hZii5aynS36vV57oSxFioBUUlViqyikJSLi5JAx+3KONbTiG+WPHF1ZJR9rqjtJhOR6LhJ0Vm7VZNXwo+u3Oogookk6TIsKKiiYKAYCHOUO4e2kVWHW6dFqkB0Pw5rXjR3U/ZW3uUkKSfMEpNr88H6DwZny3Usp12pZdq7BjVOkv+7TY6j8bToQhZSoeRAWAQD6euGAdIzbhiHdVu/h8SZuri9po76g3mbWi205OV5UZOFZtF2C4SFdkIuRAqBlVRMiR0VNXkBOBgKAa+jYHuAfux8poAoBNj38vn/P44ml1pOnHg3anS8JZm2w1V3AY1tE7YaBeSHs1jtKCFrBA8vU3RHlomph8n8zZw1yYqotvRaN1oAnrCK7tHvW7WH8n/8AtsVcA22sPQdvr27H8PPFewf4ceA//dVx48TO6fG2pPdtu8wzhKRaOXNUnrCeYv52yzhoZvQquyc2C0CZ+2IZSPUfsGBoVg57khGWlI9umsksumcGKpFyPxP0vh0nWZ6dWzTadtXpGU9uVAd1q0y+fYXHknMnv12trVeGNTsoPZiLBnYrFLx6LlCfqbJNZwk2TdoKsl2vqJgosmLHNxO23Fr3P7MVy8W4xvGZ8h1DFeNoB3Z7zepxnXq3CMwKCryQen7SiqqoJUWjJqmCjuQfOTptWDBBy9dKpN0FFCsdeLKVh2C9LLprUOAf7+LjZs+5ttMQ2k2uMaXIzbAESgook5XrNaq85V3ZIcrxN0yCy5BtTGMlzMTkio5m8SdNhY5pBSbngW/ntf8Ad+4mLNuXRY6kqUljHbQxyZtdz4LSUkavFWV/JfNZpKKZKPF1Eq7NXK/021RTZAiz2Qia1Pw1vQYMn0moq0jGayirHZ8KueD5dv44r5bo9tmRdpebrtgvJzNNKx1B/wANpNmRf5RZYB6HrwVng1l001F4qZYiRwiJigq1XBxHuipvWblJNjpIIJ44/V+OI+aYpg0ww1HpLf1g5v8AsBM/60g9RK6zf0XQf79g/wCFLxs+9lrb+uTNF/8AsTVLfX3umYmZ1jEVlsT4NVIgqqRLIFyTVUTTMYiZ14GIFEpzFAQIZUqKpkwMICYEziXkCmEuJehx9hqfndDjqELciwVAKIB2tuo3EC9+Lgdu5HmRbM/tT4Uh+Bpi81DfkNtzai2tTSFKCC6wUpBKUqF+ex+R+YmF0/UlW21bBqC6Z0VEouZMYihRKYpFb7aliGMBgAQKdFVNUgj/AJSZynDkpgHWAuo9xt3WXNDqHELQJNNG5KgpN0U6ElYuCRdKkqCh3BBB7YnB0ixH4fTNpxHktOMvN0iqktOoUhdnKrUHG/hPxcpUkjjkWI72xW03bx7om6HcGRVBdI45kyOoBFEFCnEi1slVUzdpgAexRIxVCG9jkMUxeSiAjtc07dYkZDyi80+0tKqDTh8K0qsUxm7hVjYEE7SDyCCDyCB+drXGlz2dYdRm3IkkKOaqq4kCO4bpXJWUm9gACLkeVuRe+I6maqEARMU5QD6mTMUOfz7uPfnx78/x4AbxQULc8MOJKrEgXHIHfi9/24xU5CkMoLjrLzaBa6ltKSNxNgLmw5uOb9+PqyTpUj/zqa9+Vcuw/TyH7oTg8efpyHn7DwP01GHq3uNI6l6iVTx/7gwD91icbDfZpfpzfF7Xy/Uj25PDAPzPBt/944zv/Ef9+ZuGDs5AMiSPbz9P8WZAP8w8/cef4Bk/Rc20syMbG/5CiqPqSQSfv49MRd6liP6+tUwEJuc11CwV5C6b8ccXJ45sbm+Jj9HyDtC2Z7ZKMmkiFfTqosH6xSLEZGkHshHmi25ziAJC4MdFRZFIRFQUkHCxAEqKghgHrGmU1zK2WaetLD9WkV+OYTDe0yRtakpcWlI3LsNzaFKAtuUlBJWUjE7PZjUuusZj1DrZTIi5Vay26iovS/EbgvOb4y0tArCW1qQpKXdoVfw21KvtHECt3jyLs+6/cE+qp0H0ZJ5nyEpHOGCqTlrIAraZAhn7JVudQi7aSXBR43UTMYqyS5FCmMB+dSdyM07Tsi5WbnuFKmKFT/HU4CC0UxWtwWSSRtAAANrW7WFxrz1ZSit6v55bo6EyEzM21duGI9loeC6g8lvwtgIIVwQBfv3N8SpxX0rc6ZAqDK52SyUTFkO/ZtXzUl6kpVk/UZvCGVQWWbx8NIIse9HsX9GRdNHBkF0lSpGKYwEwvXeqHI9NrEuh0an13NM2E6pqQqiQHJMZCkEpV+fbDgUEkEFaUqSbEpJTZWJV5S9n7qFU6DAr+dMzZcyBFqbSXobVbmMJkrQ4kLQHGHZMZTSlhQISr+yb83tjVs+dNPN2EaLI5IbzVJyRTYIibiwP6NIyrt5CMFTAUsm8j5SFiVHEYmJy/Evow8gi0BQh3hkEzlNr72ROoTJed60nLng1OhVtf+jgViKYzjhuAEt7ylS1EkbQEAkHyxZOs3RbqHpRltOcos+l5vyoCQ7VqG6mQhkAq+NxLLj4S2ClQKytKbgAEk8Rz2nFAu4zDoAPd/x/rI8h7f51a/mP/wB/XV26yH/Nbnrj7NBqQ/CFJ/DFsdGaNnU5o8AdwOcaGoG1u9RjfM4bhvd2bZX3S7xrAvTwiIKrV/GmNEp652Zd00r0YsauCqmgZw0ZvXK6xyl8kaNVxRASHcegkYFAjrpdrHlXTnSfLUWoe+VGrTHZgj0iksGbOWG3nSVrabuppu39tdtxBCd21ZEyOoTpez1rh1B55rMB6Dl3KtMENmVmKuOIiQvFLEf82wt9bKHl3cRcJcJAJJsOcQzzL0us34vo8pkGvWKi5Vr0BHOJidJRJCUcy0fDtUyLOpVNhJw8YWTZNEROs6PFOHyzduQ7ldFJEoqBkrJPUtkjN1cay5Ki1XLlWkL2R2axFMZDhJ+FPiOFFlKBFha3JJIAJEd9WOhTUfTnKj2dqPVKVnXLcRtTkyZRXEvLaSkErUG2XZO5tBSpJWDYkAXBIGIg7cR4zri0vA+LpXS/n+GVbciP6+wchz45+2UdU/0eZusbj8gVGx9QYcg3/h8sYh6Vzt6g9K0qSRbOVBSQeCLVSLe4Nrd/uw6Pfls/ytum3bRqFIRjomvQGGKCFguViVctK7EGOrYTkQcOGzR4uu4VIUxioNGzhUhEzqrFSRTMqEWtHtW8saa6SUhmp++VCpTKnUUQ6RS2DKnyNr76yvwUEltoA/bcsFWOzdY2nx1OdMudtcuoPM1QpL0Ch5apsGCahmKsPJiwWz7tEQW23HVtIecClJBQh3cDcWBTiFWWulXnfHNLlL1V7FQcrxsGwdSkxH0WSl151vFMURWkJFmwlIKNQlkWaAHWcIRT15IERIZQGRih4yrk7qVyRmmvM5cmxatlurSOIzVYje7NOqJASnxFlHxquNosb3J3EAnEatUehHUfIOVX850Cp0rPOX4aSubLojqHXWW0JJcdS0y7JKm0EEKWDYG3xA2ThZKDY6q6SJDcKKKFSKHHHBlDAQOR5+ndyPPjgB8jxqRC3EoQtyylJS2tw7RxtSgrJv5gpBv8u+ISRIbkiYxEQtKHnpLcVO74drjrgaTe5BFlKHe1+wxKrcLtLv23Sq4qt9um61KRWWY53IQCcG9knDxmWPZQr1yhKN30SwTbrJpzrMofDuHiQmKvwftKURx/p/qVQdRDWUUdMlhVBqL9Om+O2GgXmXHEHaRdK0qKLhRVyD2Fuc7a26CZq0TOUzmOXGlt5ro8SrwvAcCihmUw08lKkha7KSHClVyCClVwCCAw7pl7TrtDW7Hu51aeqR6ctG3ZmSESfvzWgqruEsdZTE7QIz4ApCO1CuDB8y7/AITlUSgICQI2dUmrFI/oxXMgimVY1N1MdCZ6YqhTiFOocUVSyQm4SlQCUpWd21JtdRTPboG6cq5AzJQNXnq1RlUl6NJS3TGpLTtS3FLZTvZS6VoTdwbipHAuASbX3Tdf00cvZuz5lXLtcu2MIyEuUt8/j2Fgmp5hJtUCRDFI6T4qdbctE1hM2MJO12chyCmYDgHt6tIeonLDeVsn5Uco+YPf48NEIvtU9a4BX47oChJSLKT8VyoAgEWTutfFrdQ/RJm+oZ21K1Fj5ny2mmypz9XTCfmsNT0tCKx+bUwqSFJWSg2Ts7EKAKSFHn3QNRO26iFeQU47kcYZUTNwI8dycW1KPHJSjxyA+4AP3ANTJbWl1tDifsuIStPbsoAjtcefkSPQnGr5xlcR96I4E+JHedZWUq3JKmlqQopNhdJKTY8XHNhe2Gypmkt8eyzqfbTuw05kbbjuEy/b8Zx5DGdSbmOWvNjyfT4ZslwddR1KWKJvlXjTiciZEJFixACtGRyG546VK3eXb+fTjFOQQEoiUQ4EoiAh9hAeBD9dMeXtiyd0MqkjgrDO87qB29k0LXccY9laJS3DoAEz6Xg40l6uDP8ACYq6CSzkuOYtuokBwfrSr1BLhxHdijHc2ngm/lf8Db9+Nq6hlqn7z0NNlN0tUm5mrNbc5VuzWKZen9R3LTk7Wtw0pLSTk/8A3nD1+6cOVhD3UVMPAe2n1wdO4pNrcEY5T+zlYPY3fc7lXNUu2ZvGeE8aNYuFScd3rM7llCVcx8dLtygIFUK0qlWurFTu8EUlmygcGTAdMcAi4vew/nv2wqHf7nSzbid3+e8lWV4o5BxkWy1ystTm5ShqVUJNzWajDtky8JJA0gotmZ4dIpQeyiz+UWAzp8uodiilbvL+f1Yj9iXJVkw7kyhZTqDpRnZce22Ct8Mskuo3EXsFIIPyt1FUjFUK3eEROzdFKYPUbLrJD+E4hpglVuLed/mP5H0+uLMf7RlT6ndaPtH3Q1RFN82trCYqBbM2a+kWWrE5ER9/oZHS50yrCmKDizPo1quIGRK7kDFL3HV4Y7F/ZP8APniqxpjpwaYYaj0lv6wk3+dAm/8AWUJqJPWb+i+B/f0H/ClnGzz2W/6ZMzf7F1P/AOXTMWOHTVu+QBs9QSdtiqgsVu4IVZAFilOQqwJKAZMFikUUIVXt7ylOYoGADCA6v4c+fAU6qBNlQlOAJWqLIdjqWBYgKLS0FQB5sSR39cb2p9IpNWQG6rS6bU0Nq3NoqMGLOQ2qw+JCZTTqUq+aQCfXHsRSTQImkgQqKSZSpJJJlAiaRAH8KaZCABSFARHgpAAA5EADzxrzvvPSFrekOuPurIK3HVrccWeLla1lSlcf6xPH0x6mo8eKwiPGjsR47QAbYjtIZYbSD9lDTaUtoSP9VKQB6cY1WSlMeDMqsJycpBbEZwDZxHyUvAFnjuhOKQN1mjpyD87oTh6ZEVUzLCbghSgPAauuM5qA3DQuCnN7dPba3tORxWkwksAXSttbQDCWtvIIO3ba3AGMeSpWkz1Teiyv6vn6w4+Wn2JScuvVBcnds8N1p0Kkl7dwpCk7yb3FwccD3o0qpPNpG4RR1W4VZaIo6UrGOTxjQrmPkWM/DqIO2rgqRVm7hM3ckY6RymMQ6iKgGTOcg5p6aszZif1XoMKVWqo/Hk+8pfjyZ0p9CyiO8tKSh5xdrbeQAB5G/lF3rkyblJrp8zVUY+WaFEmw/c3I8mFS4UN5suS2UKKXIzLSilSCCLlQA5Fyb4SN0q/60sEIcdwVq79oj44N+6E3x5/j/LnUz+rUp/qnqYV9n3mDf/1zdv1gY1uezSSDrmskXAodQCvXaQxe2J5Z7cdMxPPWQwzK0ua+UxtKoXoRJYxrgz3YgR2Ynyl4g5JH8dinDEoqiQw+gXyQusIZOZ6nzp5l5eUpFPRSE0pH5MQpNLEwsjf4YKpqC0SQbJLpHBG6yLYlFnmR0HN6sZraz9DeczKuvPGuOSTVvckzDsDoUIaw4Eggk+CAObpAJvjrGZlLtUdrEtO9P8uLmWMG9WfvLY9qTKRcZKRhFkHZbDJwknKrvDqu42JegeVdSyLe+Vxp6p2SzcGqZm1uaVpi1nVBULXY1l7PUeUVUdiruRm6XdICmktNREojEH86UFlaoqwUlCb7lG9+ok1/Lmg3v/S+jLkXS6VDX+WpGX0Orq5jqKkK8RySXHg0ElAWly0tN1FdmikYrgUq2LUy6V+5Fj2M45gZplNDHyxTLMZBZg7SdlQfFAxFVUHB0xI4AqhFDkMf8QCbnWxeuUlFZok+guPLp7E6I5DU/F4dZbeZWzuaPISUJWSnggcGx740h5LzW9k3ONJzd7pHrUmmT01AwqhvVHkvNOpcKZACkLUkkWWQq6rnnviU25TdjmfeLO1EsjBJRMfVY1xGQlRorWZXYLP5B84eP5lZBZ1JPXku+IdqyMYVhSSaR7dJqgiY7k6+O8g6Y5H0jpsmJGkRXVynFPSqvVHIyH1XKTtcfc8MJRuAO07QVEE3IBGfNY9ctWupLMUaqt02qxI8GK1FiULLbVSdhMJZ3kLS0wXVlakqAJUTwkc2Bw07pOwF3VoOcqHk2BsbetSjdgzQhbhEyDNq8YWCFtkdYW7ZKTbpd6LxokzK7IQDkEyTdQQKPkYzdQ8nLydStMKtlybSl1FdSMeZIpcuO88Y6VRy0l73d1Y273XQhSxfkpBsLCdvSHDzvI6ftZKBn6n18UxumS5EGJmKJMZQHUsrUVRjNaQ4bbQopSoi6Qu1wDhMO1ABDcdh8PoGQK0AePHiWacByP8AEePfx76lbrU2hvS7PCU9vyBUr8359zkXubk8fM3xAXozJPU7pB/tpRbfQVGNbt6D8LW8sNR6v2cZ6Nksc4Brr91FMHVcQyZe1mbs7dackZJ08hKxFSoJgmoojBxMGeQRRWMuisSYZHKQh2SXEbOjzIsD+i87ONVjNypsmfIh05clPjGJGa2FRZDiVJbDi1OJCkWNitJsk8y89pPqzXWc+0vTihVN6mUuFTmalU26a8Y3vcuQt7aZK2Sla1JR4fCiR8KT88aH0i80zUdlGx4rlpB1KQFihHkrGxr86jpuEnDAR4+TEipzlTavoBOWQeJiQQcmTaEOAlL2m9PVzlSJFolFz5SIzUSr0Gpx/FlRwGVqiOqIssgAr2vhgIHO0OOG1ibez2cGotSzLPzvo/mqoyatQqvQZcqFFqDq5SUSkraZWltTxXYKYffWobgkqSCLKSkiKE5j+Lxd1BJahQiHwcLXc7fBwrUCCQjWHVsLd5Ftidwf9GgxcIpJmHjlMiZhEeRE2ZqrWHa/oPLrUjl6oZMfkOEEqKnFwJAUTyq6lEbjyDc9rHEYtOMsx8pdalCyxHBTFpOqdPhNAgps2irxLdwOPi8gOO2GEdX3O1gr0ZjPB1cfuItGyRzjIl8XaLggvNtknzyDp8O4URAjgWMYVlLyCrVU5m66zyMWAvcyTMOB+j7JcGVQ6pm2pxmpj4nvQaaZALnuzaFqW44yhfwpUpSVC9rgFY9MSp9pfq3WaXmrL+nWXajJpcVuCiq1gwV+AqY88lbaGpDjZDiwErbc2lQ+LuOMcR6SOY7LH5ilsaOZF68gLVByUm3j3LlRZqhK1xsaYUXKiofsIC0MzlWa3YX+lIsQigCmQAD7fVxk6CnKtPztTGWodZy/OjqTLYSlp7wHV28NS0DcsB4NKQFKIQVLtwtQPxPZv6m1qrZrzLpbmSoSKtl7MVCnOsw6g6uU03KaSlva2HSsoStt9wKSCAqw4ukEQq3h47hMV7t8xUqsMk42vR2QFX0FGopkTbxsVPkZz7KOaEIJiFaRyUkDJoACH+Lt0ufIeZF6eV1eY9O6DWnlFUmdQFKkKvfc4lp5ClHk8qCRcjgm/nziC2rOVI2Tddsz5bhoS3GpWdWmozYvZLKpUZ1Fr88LWq9+OPkMMI6qPH+4PslEPf8Ad+4hz+XyHGgfr78/3/cdRv6TVKNR1TQo3SM3zzt8r+8P/iPS/lx2tib/ALRoWhaHkd/6C0fk2vzT49+fvOI2dLV++X3cUlis7cqsggcin+DMsoLYDEx9aliiCHd6XJVSEULwUAAwAIav7qphxEaS5ikJjMJf8GMS6GUBwkSmLEqCbkj1N+w9BbG3s9K3WF66UqnLqk809MWaRCVLfMUXSASGCvwgTYA/COBjReopPTbPednxo1lpFughaY9JJFB64TRTJ+60DyVNMhylIAcjzwAeRMI+fe89GaTSxpZkdYp8PeqkIcK/dmt5WZMg7t2y9789+/PzxhPqezfmlGump8JvMNYTFGYHmTGTUJIj+EYkX82GQ5tCLKJtt88S96A3I9QqtD7iOLMoiP5iMS08/wB4/wAx1lv8B8gAB9wHAHyHGI0tEk3JJJUSSSSSSOSSeST5k8nEj9gWeBxD1q88U2Uk/hKpn3KWbMVyrVdcSx7iwL3KSsFMcKJHXSb/ADL55D/Io9Y5F1xTsj9g0T9WTHu5I+0Pvw588KZ6i23h9th3nZ2xQdqCMKldXtso50UlCtnNEvghbamRsYUUSLKxkXLowEkLYnoJTUTJtEvDfjVV2vx6ftJP78dKwARYcWw5nfgk82TdHXaltIIf5RfdwjppdspR/eQXR045WNyRaodwnwumQIe1zVDhHDtq4TK7NXxIn67N0uUOs/W3It+q4+Z72x6EgeHe4uRb9nH1IH68fF3whx0C9ggfbKlEDx7c/uVn7nj7cjyPH0+ngNVx0rHCflx+zHY/2Z34VSF3lJoAUsmVbC3rH5DvM2UbZVBiAAH4+0q5Hgh9O4xvYfdiqCNo+V/4/vxV9ykRwlkzIibvu+KTvVtTc93Pd66dgkCK93PkBBQpgEB5HkB50x1Y0UOfpzz+WmH0xa+6u5k/8DZ08wWOUHhnm2USEUH+nMmG1y7/ABJu034hKVQW4KmEBEpzpgYQE4ch9kHz3H8Obcfh5Xx3L+yfn/HFUDTHTg0ww1DpL+dwk1/YCaH9JOEHUSusz9GFP/v+B/hS8bP/AGWoI1jzMryOTKkPv98ph/ccWQNatMb6ce1FQElkVDByVNVM4gHkRApwEeOPyDVUmykm1wFAkccgEEjnjkcY63UlbTiEmxWhaQfmpJH78IUzL0+t0Np3R5EyRAQME/plnyrYLjGT5b3UGxwhJmfcS7ZZWMezraaSVatnAFXbFjfXKqkYiBVh7O7Zll/qJ0ojaZ0ylS6s3HqkTLzUF6m+6vLfVKai+EppIbQtpfiLFkFSgLH49tzbR9V+jLXWT1CTs2xobasvS84qqzdR98cCUwlzQ8lR3NDaoJJJTcW7Ya5u4RO22a7iGqpgOohjIyKqhRESnOWbiAMcpjfiMBzAJgMYO43PJvIjqJfTo8mTrdQn27ht6TUXkbuFBCmH1JBHNjZQuOw7A2GJ89brSmumvN7SzuU3DpLSjcklTUiI2o/EL90m1x28h2wifpV/1pYL+zd2/wBkJvU4+rj9E9S/85Tf/wAizjV/7M/9OTv9x1H/AHWccV3/AAiG8vcIH3yG/H6f+HZ8fyANZV0eF9LcjgedAi/7p8+/8cRY6lx/n81RP/i2f+G5OGP9HHIgvX2ScOzJvioSTatZwpHDjgqDdVFevTzZu3EBA3zJnMMzOFCnAyZItL8JgEAJGPq0o8ejVnIOfIyCmRBrDUOQ8238RYVukN7+dpCFNvBNz8RdJFsbFPZ5Zifzhp9q7pTPeW+x+Q5E6G084QA4+I8RSWxcqCQZCVrCQRZAumySQsOs4IPN7rHO36VWLDLMssTWP5FwmJnSUeeHsbuGeGREggLoEBaqAiPeHrcF5OUDAcJN5ozv+QtMpOeG2vefCy4xVmUXCQ5viJeQFdwm4UndbcUi9gTYGAumekLOeOoSDpVOWYTDmbZNGmLG47G2JxYc2k7VKASlRSTt3C2G57m9y9D6fRInAW27GNTSvbmsxMxcLrPx3xK8e0lUXbiIZuzNPl76x2VRqDSZVdyT9xX4tF4VmyhTqrKgwidplphWteadIz7qRmiuSKRMlOog5fp9Qfiw2kJUgp+FKw2hvnbsbaClLBUVjm+wjX3qFyz0n1aLpXorkTLkau0yDHXUczToMZ+YVqQSdzioynZJGwqPiOJSArbaw3K7505tw+ZdxkFkC0ZWViFm8Q5ZRNbWioNrCpKKqRU0vLlErUQK4BEnyoe5QoiQyn4R/GIDYOsOm+RNNdQdOqZlFMxuXLqDUmoNyprszayl9lEc2dKvDJc8YDafiAJIHw4zV05606q646D6sZk1FTTvdolPqESlOw6c3A8XdCkLcUA0na82EpsVElSVWAFicV79sT9CM3B4nfOzCRu1vddUUMAcmKX5q0ERAPbx58D7ByI+A5Ce+sEdyVpvneKyAp12hVJCATwVGFJt9xIt69gByMamOkWpRKN1HaU1GevwYkLN9Hefc4O1tE6OpR7pFwAb3IHzxNrrBwsgx3Twc0unwwsWIqS6jVuDCUxYg0tW3yKhvxFBdGSh3XckBu4ETtzmKT1Sl1i7pQnxp2k8SPHWFPwajMjyWiU+IhwuhQukEnaQobVKtuIUAOMZa9olR51N6hqhNkoIjVekwJcJ3koW14RRYKIAuFJPAvYEY/J0lqXNTm45WxtEBMwq9Xn1nyokP2nVnWC1YYtkjAXt+IVeTKSxUzCUxm7dycoD6Yhr4nWDWI1P04FJdO6ZWJ0OLGZSU7yWnPeVObSblsJa2EgW3ON34IOMg+zJy5PmasV3MpbKKVQcvTXpUhYIb8RxyO0ltKrFJUAtS7X+yhR8saRnm4xz7qSXuyEWTWjWGcEmgLNxKomcldex8UrwIG7TH7445FB7xAVAN548jfMCjSmun2NSVpUiUrJimQhZIIUuE8lO64JBuoE+du1/PF7GaqY51xJzEHA5TRqpGkpeQEqCmk1SIrcnmxBAIB3AcWFsdj6ykI/b7gMdTqiRyxsziKIj2SvBhR+LgJ+wMpFAp+BKKiap26pygPcVNdIxygChBGy+kOfHlaZyobVhIptbmplI/tJK3FFPF79rEcC+42HHN0+0kpM2LrnGqboJh1igw5MJ03stAaaSUji17pUbAnsT3POhdJ6uSsjudZzTRsdWPrlUti8ksUp+1Ms1AyFZYlAwgBRUUkJpt2k55MQpzeQIYNdnVxVYsDS2VCdUlUmqzIUeI2kgrUtLyZCjtuCUpQ0QqwNlKQPMHH0/Zp5dqFQ1omVpDa0U6gUKdJmSFJUGgVKZS0jeBbcsglIvylJPPbHMOoTOM57fFmhZidJVKMtsVXlVEVCqE+NrsLDw8in3E/CCjaQZuWqxQ5EiqByGETFMI5O0bgP0vSXKsSQja6MvLUq5NxdD5SOefs/q/XHXqDqkas9TWd50JQcju52ZQ2tNiFJbeiXKSO/xAjviZnVQ/wBA2yf8oG5B+kHjUNYK6TQfylqkr1zdN/x38S+9o4LQdEO3/Majj8KfG/Vzx9+IxdK/zvCpX/kGRw8+PbHNr/l59w/PWRuqsj+p3MSvIsxwB5397YxiD2eZA6gaYD5RJoP4c2v6A4531HS8b2dwAiAl7rVHGDu49jVaDEB8c+BAwCH3AfHOr70aF9K8kLBBBordueb+8P8AHp+vGAup2w1/1SHIvmV088f9CiC/0v8Afe4txia37P8ACUeodWiD9MV5QH8v81M/7/v76yWeAT6YwY0QPuPl8xbz+mINbo7fOY/35ZzvtXfuIuy0ndDdrdXZNof0nMfOVvI76ZiHzdTgRTWaP2bdwicAHsUTAeB+jHavuPp+84sy7t9oTbqBbgumFuwpbZqrQsvxNZHMrpuQirWOqtWgzZoYtnHoprrpvZePbXagC4epi2jZ4tdYvE/WdqpmY4YSt1ys8J5l373iuxT0HFXwTCxGHIhu2OUI9vMQZnUxc/TbpiCSb1rapqRg35xSTVAYJuzN3JMkOKjkgepGKEgWvfuAPqfv8rfwxM7e9/2BWwUfvlWjf7FbgNclJAAt/Pp+/BXY/Q/sxxH9nu3CMsV7u7NiOckU2EFuEo3yOO9ZRJFJXIlKeqTlPKoZQxRP68M/usa2RSMRRZ/JM0w5551wx0Ygn1OttVk2w70M1U2UbLDXLTbZjJOPJcUlytZikXmSdT8YVu4XIn8U5gFnrmsTChQ7RmIV8ZIPQMiYzFQknt/Pb+P7cRYwhiS352yrQMO0Rg5kbXkS0R1bi0GjdZ0dAHixBfSbhJuUyhY6HjU3ktKr+CNYxk7cqmIiioYGO1IIFjxzf9n8PwxYt/aKbxTanCbS9qVPWRQTxvWZC1rwTd2ZwaDriMXF0SgoPe7kPUOwhJ4GplT/ABAt0jrnIVN0koowX9k/LFXjTHTg0wxNzYnuCpe3HMClxvrScdV99XJWEdfu61ZvZJA7ozVwguk1fP41usUqzQgKEM8RHsMIlMJuA1hHXvTepapZNZoNKlRosiPUo8sLkbik+Ch1JFk8m/i+gACTc8jEx+jLXnL2gOok7MWZYsqVT6hQ5lMWIgJWhbzsZ1CuELsLsbT8J+16chyIdV/aL9W+a+fyotPEB/gI5LKP6gGoXHox1C4IrtAsRcbkSQf1K+/z798bPx7TXRLndTa+CCRbwFkcW7ERxfB/hX9ovICDfNn0D/qLTw48+/8ApM4/9PbXH/gZahEEGuZf+4S//wBSMcv+My0RVwafXgD5+Cr6/wDUY9purDtGP29zfNYgUBAA/canfXj3/wCU78g9uNcU9F2oPxf5dy9zbm0sdvS6Pxtig9pbocN3/Ia98XqyeO/b8z88cQ3MdTPbxkbb9lLGlCicnvLLfa8lXmKlirlbhYhkQ8rHu3Tt07YXWedGFNs2VBBJJib1VhIU6iZREwZT0c6Yc2ZBz1Tcz1er0p+NTw6Q1ED6nHC60psj84Ei/wAVgATzz5WxHzqd65tNdVNJ65kzK9Nq3v1XVGBelJ2NtIZkNukgFlINwjk7uB2BOFkbGc5Ujb7nKJyBkEk4ets4mxsXRK6yZyMsJ5WAk4xsZu1fyEU1OBXLpL1fUepCVPuOUphKBDSO1vyFUdR8lyMt011pmRJkRl+K8SEJDMhLwNgCSdyRccDbexuAlUL+j/WrLuhupDmbcytPPQfybJipQzffve8MA8IWeyDyAeSCQLXxzTdNkyv5k3CZVylVW8m2rl1tjyaiEJlBq0lCM1yIppfGt2b2QbIrj6YmMmk9cEKHAeoP0vfItCk5Yyfl7L8taHH6VTWobjiL7VKbSQSD9/H8MYT1czZDzzqVnHN9PbLcKvVuVUYyFH4g28QUhQIuDxzcD6DHTtj24eC25ZxjLrbwlj05xEzMPYkoNg1fyyrV5GuQZg1avX8c2OdOWJHKqGM9SAqBVTFMYf6M9j626bv6l5Mk0GE821UveI8iE+6fzbbrbqSu/ntLJcTYEG/r2xmjpH15g6GalJzFWUOOUGZBkQqm0wlRcW0tpWwWSF3UHw0oHYq1ubeX3M4blqfJb05vcthmNk28C7tkDcGMVZoxjGvDyzSOjiTXxjWMlpRsckjKtnr06pHvqLfGHOoUihjjr3QdPX5mlLGn1fdClmifkd6Qyq9gmOlgrSSVHgpC0k8AJHYHHz5ut1Oy31Hu6zZLjlyA3mZdeZiSEEKWHZi5C2lJKW9wINtpSO9jcnifuUs99N/dclVsjZte3qj5CrEOhGO46usJQ0xPx7EyrtpBvXLau2GvTLJoq5cNY+RcvarL+iYEHbgjZJsJI35RyB1JaYxp2U8n/wBGKrl1555cKfUnwFQw7YeI0wZ8NXiNJSFeGUONqVa4XYbZw6jatdDmt06m6i59czVS85tRGffaLTIL5amOMJ3BiVK/JslhxpalEFSS2Qk7QQLk7Pi3qebXMcOpCn1bGFxoeJ63EuG9LYw0bDy8/YZl8dVJ/K2MjyyskI0VGhGhUQLLzzs5yqg7fLETZpocKl00Z3qldoOa67mdir5jbqbMyruLC24jcZklaI9PSSClKVqSgJV8CEoGw2Kse2mdeWkdNyVm7T3L+TXMt5aNElU7LaWApUmRIdbDK3pexsNkOhTrqlKaS4FbU7gBYoIYybmLkmskyUURcs3STluoQRIch0TgdM4CQwiUwCQB5AQEo8gXgADU5ZERuoRX48pCVtSG1sup4CVJWnaoWVcHgqHIIPPccDUVSa1ModXiVamuFmRT5TcqMtN7pW0sONkkEX5SL2UD35Bw65pvJ2lbrcTVrHe8eMn6xaqkkPya+1lm8UFm6UbtEZOSjXMYznnse6sJI9qExEvKzNQa7oovmxI5QjQrOFh0g1h0nzDV6ro/MpFUotZlqkOUCsv+G3HUs7zyZcMKSm2xC0OJdCT6lSztQk9SPTJ1GZRoFN6hYNWy7mfL8RuKnMFBjvSXpaGkBACVIhzlNIIKroWFAqKiLXCce91va2obS8ZzVL2YRM7bL7PsV0gyFZmDho0j5FVFRu2npBSVYxkhOycMmsZWLikK3AQSLwiTxwR+f4pFzyp+iup+pObadmjWioU9mFSXfFiUCkuIcjJO8ObUWflixICVOPOrdsE/EsICceTMXVfoVovpvWNP+mikT5VQrrC2ZWZ6tGeiyDdtTRccS5HiOOObVnapOxPK7pJ2qSko8xKLzKs84drOZZy+PJOXrhY6jh0/WWFws5WWUMKiq66xjqKKHETmUOYwiIiI6maqE0qIIRaAjBkMhoWsGwkpCbG/ZJtbt8sauIlZqEOsNV1p/wDyizLE4PqVZRfS4HtxO4KuVgX5vfDpILeftU3N4dreKN40DMQE5UWyKMDfq61fuFWLtJog0dS7B7Ht5uViH8wgwYkmI5aBsMDKvCfHnZxxm7NNvDdzR3VrS3M9Wr+jkumz6XXJSn5VAq7vhNNrcutYBMiKlbYUnakhaXUpIAJIKztOb6l+mvqFyNl/L3UbT6vQsw5cisxmcxUKM7JekJYQGkbPCiy1NbmuXAsqStZUfhCgnH1U952z/aBjubrWz6Fn73kKeZrFJe7QwXZMWT45ViMpKWdykfBScuvCGU+IjoSPrENDqrlTcPXS6gKEU88XRTVbVPNMLMOstQp0Ok0h1DkbLlJcC46lbt6gLyJO7xC2A6t1xbpG0A7EhGOFX6qtBNCNPazkvpppdTnVWvsuMyM0VeK7GlJs240lx0LjRVuFHirLfhhCRe5So7SEpOpuRl51zYZqQdScpJyq0tLSL1dRy8fv3rozt48cuFTHVXcuVlVVllVTGOoqc5zmExjG1NBENtmEmHHaQ00zDXEjoRYJQnw1IQkC/wBlINgAQAAPTGrpusyHq63WZ76nX3aszUZzyzdbiveG3XFXPckJPHPPA8sML3v7q8XbhMabcaZj9tbU5PFULNtbOvYYuMjmKr6Wi6i1AsQqym5Vd23RXgnQCd03jzmKdMwJ8iYC4L0T0xqmnD+b36nIZfOYK3JqTPhGwQ2688tKVX/tBKhf6jk2NpgdWevuWdb2tOY+WmH2f6KZZp9LmrkXsuTHhsMulN0N2SVtq297+vOIq7bM3v8Ab9l2qZNYs05BOFdLoyDM3aRR3EyjRzFTLRFU5Tgis6jH7xukv2KCgodNYCmMmGr51NySjUXJ1Yys5IVEcqERTcZ8bSlp4fGwtSVWC0pdShSwCkqSFAKSogjEXTzq+rRHU6h56VCRUYMWSGqjHuUOLiuLSJHhKudjmwKCFkLAVzYjgtPzZkbpfbkpd7mC52rIlSyQ7hACQiYuKnY9eySkXFEYQpp9uhVbfBKLlSZs2K7uHsUL67YoKOBTcidQsedOqB1I5CbgZSciZcqWU4MhDLM918KmNww5vWWUmc0q53KslyOogH4RclWJk60Zw6HdU1V/UJFRzXS9QqrDclfkuJBkM092qiOG0mQtdMdQ6PgRctvNgkA7gPhxE7pe7rcY7Nt28bnDKbO0vKYxpd1rotqdFspiZF1YGbdswMVnIy0KgZAnpnM4UF+Q5A7e0h+RDUxk7tiN53L2I3n/AL+0bx9Aq4HytjWC6UqeeUj/AEZcX4XBF2gpXhkg8hRQRuvbm/AxE3cbkCDytn3NGS6wnIJVy/5Qu9xg05ZBJrJkirFYX8owI/bIOHSLd2Rs6TK4SScrkIqBilVOUAMPLHEkk3P0w+bpr9ZvEO0zaAbBGXInJE5caRM3l1jA1egYWYrYRFhMrY4+NlXT2yQj5okS3yMyZwCTZ2dFk7IdFQAIRNFjjcDuQPqRiujb7RKXWz2K42B84kZ+1T8zZZt+6XXcOXsvOP15OQduF1zrLLLOXrpdZZZVVRVVQ5jqHMcRNoOCD6Y4qUnjm9jfj/6PHrbnDXtyW/DC+WOl1tb2b1djeEcrYbvFbsVteS0HHNakuwia5lSJdFh5ZCddPnS4ublEGSI4iGpTJEdmEwCmQD8ionvbFFLuLDzve/8AP1wo+An5uqzsJaK1Kv4KxVuWjp2Am4p0sxlIaaiHiMhFysc8bnIu0fx75ug7ZuUTkVQcIpqpmKcoCHHHXixbWusftX3MYuquMupptYd5Zm6axO1icoY8axziXePFiM272XFk+s1OmqfIzbdm3cWVaqWg8dLSTZFdCCYoFatmDHNB5txY8/PtiSG3fqddFvam9eS+BtuuX6JYJBqswd2gKLF2C0qxzlRFVeLJY7NlWZl20aqqggqqybPEkFVEEBUKcEUwIx24j9n7eB0Qs8T+TMpXHBu5O25ovTGVdJ2+zSVsMinYflJmFe/4Oa5xCHYw0QZFg1ZxjSHGPYRzZNo2ZAgkREGOKvsn7v24rXHEO4e3nt55Dn34EA458j9OPHI8fcffTHTjx0wxnkfuPtx7/T7fw0xW59T6d/L0xgREfcRH+OmKYNMMGmGM8j7cjx9udLD0xW5ta5t6XNvwxjkfuOmKYyA+fPIh55/v5/8AkdLk9zhjGmGM8j7cjx9udVufU4WHp8/v9cACIewiH8B1S59fn9/rhg5H7j+uh578/Xn9uGMaYYOR++mGM8j9x/XTFbn1OMaXPe/PrimPIohyPI+B+/nz41Xcr1P4nHJJAvftbt5eVuMYMICPj2+n/v41TBRBPHby/fxjHI/f29tMccZARDyAiA/cBENDz35+uKgkdiR9Db9mDkfuP66fu7fLC5ta5t6X4/DByP3H9R1UknuSfqcUxjVMMGmGMjxz4HkNMMY0wwaYYNMMGmGDTDBphg0wwaYYNMMGmGDTDBphg0wwaYYNMMGmGDTDBphg0wwaYYNMMGmGDTDBphg0wwaYYNMMGmGDTDBphg0wwaYYNMMGmGDTDBphg0wwaYYNMMf/2Q==;" vertex="1" parent="1">
                    <mxGeometry x="820" y="416" width="256" height="58" as="geometry"/>
                </mxCell>
                <mxCell id="9" value="&lt;font style=&quot;font-size: 22px&quot;&gt;POST&lt;/font&gt;" style="text;html=1;align=center;verticalAlign=middle;resizable=0;points=[];autosize=1;strokeColor=none;fillColor=none;" vertex="1" parent="1">
                    <mxGeometry x="136.44" y="300" width="80" height="20" as="geometry"/>
                </mxCell>
                <mxCell id="15" style="edgeStyle=none;shape=flexArrow;html=1;exitX=1;exitY=0.25;exitDx=0;exitDy=0;entryX=0;entryY=0.25;entryDx=0;entryDy=0;fontSize=22;fillColor=#999999;" edge="1" parent="1" source="12" target="14">
                    <mxGeometry relative="1" as="geometry"/>
                </mxCell>
                <mxCell id="16" style="edgeStyle=none;shape=flexArrow;html=1;exitX=1;exitY=0.5;exitDx=0;exitDy=0;entryX=0;entryY=0.5;entryDx=0;entryDy=0;fontSize=22;fillColor=#999999;" edge="1" parent="1" source="14" target="4">
                    <mxGeometry relative="1" as="geometry"/>
                </mxCell>
                <mxCell id="21" style="edgeStyle=none;shape=flexArrow;html=1;exitX=0;exitY=0.75;exitDx=0;exitDy=0;entryX=1;entryY=0.75;entryDx=0;entryDy=0;fontSize=22;fillColor=#999999;" edge="1" parent="1" source="14" target="12">
                    <mxGeometry relative="1" as="geometry"/>
                </mxCell>
                <mxCell id="14" value="&lt;div style=&quot;text-align: left&quot;&gt;&lt;br&gt;&lt;/div&gt;" style="whiteSpace=wrap;html=1;fontSize=22;fillColor=none;" vertex="1" parent="1">
                    <mxGeometry x="440" y="200" width="236.86" height="490" as="geometry"/>
                </mxCell>
                <mxCell id="18" value="&lt;div&gt;1. Validate form&amp;nbsp;&lt;/div&gt;&lt;div&gt;and request&amp;nbsp;&lt;/div&gt;" style="text;html=1;align=center;verticalAlign=middle;resizable=0;points=[];autosize=1;strokeColor=none;fillColor=none;fontSize=22;" vertex="1" parent="1">
                    <mxGeometry x="474.99999999999994" y="260" width="170" height="60" as="geometry"/>
                </mxCell>
                <mxCell id="19" value="&lt;span style=&quot;text-align: left&quot;&gt;2. Detach email &lt;br&gt;operation&amp;nbsp;from &lt;br&gt;request/resposne cycle&lt;/span&gt;" style="text;html=1;align=center;verticalAlign=middle;resizable=0;points=[];autosize=1;strokeColor=none;fillColor=none;fontSize=22;" vertex="1" parent="1">
                    <mxGeometry x="439.99999999999994" y="375" width="240" height="80" as="geometry"/>
                </mxCell>
                <mxCell id="20" value="3. Send confirmatin&lt;br&gt;text without delay&lt;br&gt;(no waiting for SMTP)" style="text;html=1;align=center;verticalAlign=middle;resizable=0;points=[];autosize=1;strokeColor=none;fillColor=none;fontSize=22;" vertex="1" parent="1">
                    <mxGeometry x="443.43" y="530" width="230" height="80" as="geometry"/>
                </mxCell>
                <mxCell id="22" value="GET&amp;nbsp;&amp;nbsp;" style="text;html=1;align=center;verticalAlign=middle;resizable=0;points=[];autosize=1;strokeColor=none;fillColor=none;fontSize=22;" vertex="1" parent="1">
                    <mxGeometry x="141.44" y="550" width="70" height="30" as="geometry"/>
                </mxCell>
                <mxCell id="23" value="Successful registration&amp;nbsp;&lt;br&gt;message" style="text;html=1;align=center;verticalAlign=middle;resizable=0;points=[];autosize=1;strokeColor=none;fillColor=none;fontSize=22;" vertex="1" parent="1">
                    <mxGeometry x="60" y="590" width="240" height="60" as="geometry"/>
                </mxCell>
                <mxCell id="24" value="Publish task" style="text;html=1;align=center;verticalAlign=middle;resizable=0;points=[];autosize=1;strokeColor=none;fillColor=none;fontSize=22;" vertex="1" parent="1">
                    <mxGeometry x="676.86" y="395" width="130" height="30" as="geometry"/>
                </mxCell>
                <mxCell id="25" value="" style="shape=image;verticalLabelPosition=bottom;labelBackgroundColor=#ffffff;verticalAlign=top;aspect=fixed;imageAspect=0;image=data:image/png,iVBORw0KGgoAAAANSUhEUgAAADAAAAAwCAYAAABXAvmHAAAOEklEQVRoBaXBC7Dmd13f8ff393/Onj27ZzdLNpdNYu5gHWMQa7howJbLgI4jMrV2EhACVKg6VIVaqiToDIoglU6rCFRDSGC0RWe0WB0HWyq2jRgClFAhMQMCZbO5Lck5u+fyPOf5/z5vn00EA+LMSfp6lQs8SgIFqEQooAqqit1QiVAFrYr/H+UCj4JAAVFaFY+0NZvzwMYOm7M5s3lnNoZWsGfSWJ4MrK4scXh1meWlCV/WI62gqngsygUepSitivkYbv2r49z2/x7g9mPr3L++xfZsZDYfmY+d+RiK0KpoBcuTxsrSwJFD+/j2S8/kuU+6kPMOr9ITWhVVxaNVLrBLKgKtik8dXeNt/+0O/vLYOrP5yKSKyQAqpaCAmBBDAr2H3jtjws585KyDK7zqe7+VFzztCfSEVkVV8WiUC+xSIlVw7/qUH3/vR7h3bZtJg0P79rAzHzmxPWN5MpAEEzQkcooJKCoqhcx25mzPRn7hxVfy/Kc+gSRUFVXFbpUL7NLYw2RovPd/f5brP/QZ9gzFs775CC+68hJ2xs6vfeDT3PrZ+1iZNHqCCVFQElHRoGJCK5jNRw7sXeI//evv48jpqyShtcZulQvsgkqU1ho//3u38YHbjnLe6fu44RVXsrqyh1PuPLbGj13/v0g6KImoqCSiAUVDFCKtYH1zm9f+06dxzbMvZ+xhMjR2q1xgF5IARWvFtb/9cf7kU8e48PB+bvyx72J5MnDK5+87wSve+SHGsSNgREVDDERUVEyQUMD6xpQfeuZlXHvVlYxjmEwau1UusAsqIq0aP/O+j3HzHfcwacU/efKFvOwffyPb85F//wef5IP/9ygrS40eMUElEQwqKknAoNIK1k5u8+JnfwvXXvV0xh4mQ2O3ygV2QUWgVfG6//xRbr7jXvYtN6Y7I4dXlxl750snpuyZFImomNATNBjRoKJiREMrWduY8pJnX861Vz2dsYfJ0NitcoG/h8qXqQi0Kl7znlv40KePsbo8oSfM5yMqkwY9omICyPJkoAiJaFAxogGlStZOTrnmOZdz7dXPYBw7k6HxVYqF4uspF/gbClWgoiDQCqoKlVOqirf/8af5xOePs7JnQhJQVEwQ0FDCdD5y510P0HvAoKKSBBQNVcXayS2uec4Tue6Fz2DsMhkaf0swSFHV+FrlAo+gUsVC8WVjD480tIKCkoVCBIoqkUKlVXHPg5tc9ct/wNZ0TgM0qJigoqEK1k5uc81znsjrX/SPmI9zJkPjbw1QUCwYqMYjlQssKGhorZHILZ89zv+8416On9xmtjMSxYiIERETVFAUVFRUUHbmI3917xq9dxA0aDCiQaUBD25s8bLnXsF1L/w2du6/gUntQDUe1mA4i9r/XbB0LmWAgipOqaiFJNBacd+JKf/uj27nI5+5n7F3QErQoEElERJiUEExEoOKigkoy5MGhERMUFHRoNJK1k9u89LvfgrXXX0Z82NvYFIzqAYKdswc2go87oeplSdSBmhQUC4kcsr69pzXve//8Km71jiwd0DFiAYToqhgMBIDggkqMagQ0RAlvaNigoqKigkQqhonNrd56fOu4LqrL2d+95uZ1AwsoIMBhWxiOwBn/xxtOIRIVaOSGGFoxa984A5+55bPc2jfEvOxo2ICSCIaVExQUVExokGDihENGhCSoAFFJQkoKkNrrG9u89LnPZnrrr6M+bE3MakpCDqCoehI4bhGHfhe6vCLwU7RqLF3WyvuemCLV910K9OdOYUkoqLBiAYUlSSoGAFJggoGlUQ0GMGgosGIigaVU4ahsb6xxTXPfTKvv/pbmN/9RiZsgaAjELCjgjNoh2jnvBGG00CpcYytFX9421F+6ff/goN7B8YeVDSgJEHFBBUVFSMaVDQQiaJBxQgGFRNUNKicUlVUwYnNKS//7qfyM1f9A+ZH38BSTUHRjnagg6GUZIt25Gdp+56Edqr3bmuNt/zXv+APP3GUfXsavQcMKolgUEmCCoqKkRhUMCSigkHFBBUNRjSonFJVqAytcWJrm7f+yPN5/lPC/ItvZGh7wBHtYCg7GGShr1Gnv5z2uB8ghEoiCz/yrg9z5z0nWJ4U6UGDSiIYVIyoaFAxEgOKBhUVE1Q0oCRBhQSBquKUoRUb2zt843mP4zdf9yJWp+8h638MbS84UgbsYMDOKfYNWH06wzmvw4RyYW1zxr94159x/MSUSYNENKiYoKJiREVDIiitRKX3joqKBhUTUDQYEagChCibszn7lxu//uqreMqlG4xH30CVQCCdoqOh7GjnFLMFey5muODtFFAufOH+DX78pj9nY7rDUJAEIxKMqBjRoKJSyDh2Nqc7zMeR5UmhYoKKBiMaVFSqilNawfLSwDdfeDY/9c+ezZMuhvGuN1HjXcCEcgQ7GKSDQQOKTmmTM2gXvIOaHKRcuPPudX7ypj9nZxwpIQYVEqKomKCgoYCN7RmrywPPuOx8nnjxuRzav4/WeJgggiwIAsVCoTIZGuecfpDLLtgP/XbGe26k5l+kagmcowE7EDBowFCEuENrB2kXvI1aOody4c671/nJGz/MbN6pkiSYgKKSCEgSCtjYnvGd33SEf/l938E3nbcPOAauAUIVX5+ggJA57DxAP3kb2fokjQ41gcwBwQ4G7UDAUAYR3KFqP+3Ct1HLF1AufOH+k7zqhpvZ2J4zNEhCEhA0qCShFZzYmvGsy7+Bt7zsmUxyO+MD78fxXooOBihAvkKBgB3tYMA55Q5VA9QSZcAOdDBo0A6GImCAgGJ2qOEg7aL/SO05Qrmwtjnjh9/5p9y3vsXSUCSSBBQVFZTZfOTIob28+yeez+lLn2T80g0MrVFtDw8rQKBAwYABOhi0gx0VCOUIjmAHg3ZEMGCnDBAgaCjBbMPSObRL3ksbVqgksvDP3/Eh7rjrQfYuNXoXFA1RSKiC9Y1tXn/V0/nBK89ifvebmNQ21BIgDxPkYQnQ0VB2pKMBOxjKDnYklB0NGiCUATokUIEEDFKYDWrftzNc/A5QqvfYWvGLv/sx3n/r59i3Z0LvAUVDFBJ6wr49jff8qx/gvJUP0h/4fYbJfjBQxUMUFAzagQ4G7GgHQtnBoB0MRUeDBgxFwAAdDaVowACNjA8ynPlKhnN+lCTUfOwOrXj/rZ/j53/no5y2b4lxDBpUTChgezbnkiMHuOEnvp8Ds+vpW5+gtX1QgvIQA3Y0lB3tQNAOhrIDQUPZ0YAdCRiKQAIEDBIwqGAAIVOGi36NduCpaKfG3h1a47P3rPGKt/8JY++gRFExoYCt2Q6PP3KQG1/9/eyfXk+2b6PaCggYMEBHO2XQjnYgYCg7GLCjAYJ2MJQBOhBQMGhQgVAGhDilLV/McOlN0FYAqSRGGFpx7W9+mD/6+Oc5uLLEfOyYoFLA9s4Ol559kBtf8wJWp9fTt2+j1T60U3akU+lIwI52MJQdCNjRUIQYSIBOGahgQhkgqGiAgIKhaoLjg7Rzf4rhzGuII60mlAs9oVXxxeMnefnb/jvrG1NWliekd6IUMp3NueTIQd796hewOr2ebH2CqhVwDnYwQMeE0GkG7IiUHQwaJGDAThEwQMCAQUUDShFQqAH7Cdj7eCaXvIsaVhGoapQLIIm01rj59mP87G/9GfetbVJAIUXYms55wrmHeN9P/yCr098gmx+n2jI6UnY0aAcCdsqgI2Qb7GiQTkWggwECBuxgkAUFAwYKUHCEyRkMF76VWv2HkE7VAAXlAgsqCq0Vx750kt+++U7uOPoldnY6ILP5nPMPr/JzL3omK5vvpG9+jNb2onMwaAc7ZcAOdqyBWjofWTBggACCAQIJFGgAKQVFBApqgOWLGQ5fBXsvAgM0KCigXOAREmmt+LKe8BChkBoGOP4ruP0xYC86BwKGsqOhCGYKk7Op83+VqmUwUMXfJVCAFPLVhJrwFQaq8UjlAl8jipHWiqriIQoIVXj/f8DtjyJ7wTlFwI6GsiPBdKiBWjofKCBAQEHQAAEKxxO0057HcNZL0E7VwFcoEKSoanytcoG/h8pXKCJVA97/VrJ1K632giPYgYAdDRrKAB2zBXYwYHhIpigLAyCOa7QzXsLkG15PHGk14asUC8XXUy6wGwqI1ci9/xa2bqFqBZ1TBu1A0IChCBhAMGAASaYwnEW5g/PjVNuLfZ12+IUM570WHamasFvlAruhgFgN730zbt5C1V50ThlCIAFCGSBoB0MRpHDcpB2+mnbWKyHb9Lvfguv/A5zTDl/NcN6/QUeqJuxWucBuGE6xGt79C7j1Eai94Ih2IGAog4QyYJCAYGYwOcLk0puoyQFOyewL9M+8BMYHqTOuZnLuTyOdqgm7VS6wG4oEasD734lr/wXaKjoHO0XAAEFDGTSoPCQzGE5nePx7aUuHOSVbd9A/90oc1xjOfS3DmT9EHGk1YbfKBXbJhGqNzL5Ajr4GMqNowBwMGlCKjooGDKVQhX2LOvQ9tDNfBoz0u38VT/4ptXwRw6XvpiZngFKtsVvlAruliFAN1z9I7nkzMFK1DAqMGJFAOiClgFAFFGYKwyHKEef3wOQMhgt/mXbgaZhOVYMqdqtc4NFQRKiGG7fg8Xfj9qcgO1ADMgADpUCA4mEBRyDYt6EtU/uvoJ39o9T+b4V0qhpU8WiUCzxKKhCoAexk4xY48UHc+iTOj8O4Bs6AxsOEthfaabB0BrX/Cuq0Z9FWr+AhdqoGHotygcdIQ1VDoAAzxennYH4XjmvQt6AK2n5qcjosn08tX0TVgEApIlWNx6pc4DFQqSpUigAF1dgNDYVIo6pQqSoei78GOFVq9zVGl68AAAAASUVORK5CYII=;" vertex="1" parent="1">
                    <mxGeometry x="925" y="637" width="48" height="48" as="geometry"/>
                </mxCell>
                <mxCell id="26" value="&lt;font style=&quot;font-size: 23px&quot;&gt;Worker&lt;/font&gt;" style="text;html=1;align=center;verticalAlign=middle;resizable=0;points=[];autosize=1;strokeColor=none;fillColor=none;fontSize=22;" vertex="1" parent="1">
                    <mxGeometry x="904" y="695" width="90" height="30" as="geometry"/>
                </mxCell>
                <mxCell id="31" value="" style="shape=flexArrow;endArrow=classic;startArrow=classic;html=1;fontSize=23;strokeColor=default;fillColor=#999999;gradientColor=none;" edge="1" parent="1">
                    <mxGeometry width="100" height="100" relative="1" as="geometry">
                        <mxPoint x="947" y="634" as="sourcePoint"/>
                        <mxPoint x="947" y="474" as="targetPoint"/>
                    </mxGeometry>
                </mxCell>
                <mxCell id="32" value="Consume&amp;nbsp; &amp;nbsp; &amp;nbsp; Ack" style="text;html=1;align=center;verticalAlign=middle;resizable=0;points=[];autosize=1;strokeColor=none;fillColor=none;fontSize=23;" vertex="1" parent="1">
                    <mxGeometry x="825" y="555" width="190" height="30" as="geometry"/>
                </mxCell>
                <mxCell id="35" value="User" style="html=1;strokeColor=none;fillColor=#0079D6;labelPosition=center;verticalLabelPosition=middle;verticalAlign=top;align=center;fontSize=12;outlineConnect=0;spacingTop=-6;fontColor=#FFFFFF;sketch=0;shape=mxgraph.sitemap.user;" vertex="1" parent="1">
                    <mxGeometry x="120" y="116.5" width="120" height="70" as="geometry"/>
                </mxCell>
            </root>
        </mxGraphModel>
    </diagram>
</mxfile>